<svg width="86" height="14" viewBox="0 0 86 14" fill="none" xmlns="http://www.w3.org/2000/svg">
<path d="M1.31582 4.382H5.49182V17H1.31582V4.382ZM17.5704 4.382H21.3504V17H17.8584L12.8904 10.556V17H9.09238V4.382H12.5844L17.5704 10.862V4.382ZM34.4049 8.756C33.7209 8.36 32.9589 8.012 32.1189 7.712C31.2789 7.412 30.5949 7.262 30.0669 7.262C29.5509 7.262 29.2929 7.448 29.2929 7.82C29.2929 8.108 29.4549 8.33 29.7789 8.486C30.1149 8.642 30.6429 8.816 31.3629 9.008C32.2629 9.26 33.0069 9.512 33.5949 9.764C34.1949 10.016 34.7169 10.418 35.1609 10.97C35.6049 11.51 35.8269 12.224 35.8269 13.112C35.8269 14.024 35.5869 14.792 35.1069 15.416C34.6389 16.028 34.0029 16.484 33.1989 16.784C32.3949 17.084 31.5009 17.234 30.5169 17.234C29.4009 17.234 28.2729 17.054 27.1329 16.694C26.0049 16.322 25.0269 15.818 24.1989 15.182L25.7469 12.032C26.3829 12.584 27.1809 13.058 28.1409 13.454C29.1009 13.838 29.9049 14.03 30.5529 14.03C30.8649 14.03 31.1109 13.976 31.2909 13.868C31.4709 13.748 31.5609 13.568 31.5609 13.328C31.5609 13.04 31.3869 12.818 31.0389 12.662C30.7029 12.494 30.1689 12.32 29.4369 12.14C28.5489 11.912 27.8049 11.678 27.2049 11.438C26.6169 11.186 26.1069 10.802 25.6749 10.286C25.2429 9.77 25.0269 9.08 25.0269 8.216C25.0269 7.376 25.2489 6.644 25.6929 6.02C26.1369 5.384 26.7669 4.898 27.5829 4.562C28.3989 4.226 29.3469 4.058 30.4269 4.058C31.4109 4.058 32.3889 4.196 33.3609 4.472C34.3449 4.748 35.1969 5.114 35.9169 5.57L34.4049 8.756ZM42.704 11.762C42.704 12.362 42.884 12.854 43.244 13.238C43.604 13.622 44.036 13.814 44.54 13.814C45.032 13.814 45.44 13.628 45.764 13.256C46.088 12.872 46.25 12.374 46.25 11.762V4.382H50.426V11.762C50.426 12.866 50.18 13.838 49.688 14.678C49.208 15.506 48.524 16.148 47.636 16.604C46.748 17.06 45.71 17.288 44.522 17.288C43.334 17.288 42.284 17.06 41.372 16.604C40.472 16.148 39.77 15.506 39.266 14.678C38.774 13.838 38.528 12.866 38.528 11.762V4.382H42.704V11.762ZM61.1038 17L59.5918 13.724H58.0258V17H53.8498V4.382H59.9518C61.6678 4.382 62.9938 4.778 63.9298 5.57C64.8658 6.35 65.3338 7.46 65.3338 8.9C65.3338 9.812 65.1598 10.61 64.8118 11.294C64.4758 11.966 63.9838 12.5 63.3358 12.896L65.8198 17H61.1038ZM58.0258 10.556H59.9518C60.4078 10.556 60.7558 10.424 60.9958 10.16C61.2478 9.884 61.3738 9.506 61.3738 9.026C61.3738 8.558 61.2478 8.198 60.9958 7.946C60.7558 7.682 60.4078 7.55 59.9518 7.55H58.0258V10.556ZM68.6928 4.382H79.3668V7.55H72.8688V9.098H78.7728V12.266H72.8688V13.832H79.5288V17H68.6928V4.382ZM84.3965 13.454C84.9485 13.454 85.3925 13.628 85.7285 13.976C86.0765 14.312 86.2505 14.75 86.2505 15.29C86.2505 15.842 86.0765 16.292 85.7285 16.64C85.3925 16.976 84.9485 17.144 84.3965 17.144C83.8565 17.144 83.4125 16.976 83.0645 16.64C82.7285 16.292 82.5605 15.842 82.5605 15.29C82.5605 14.75 82.7285 14.312 83.0645 13.976C83.4125 13.628 83.8565 13.454 84.3965 13.454Z" transform="translate(-1 -4)" fill="url(#paint0_linear)"/>
<defs>
<linearGradient id="paint0_linear" x2="1" gradientUnits="userSpaceOnUse" gradientTransform="translate(-2 -173.068) scale(91 368.136)">
<stop offset="0.0276243" stop-color="#0B3997"/>
<stop offset="0.983425" stop-color="#2B8AFF"/>
</linearGradient>
</defs>
</svg>
